<?xml version="1.0" encoding="utf-8"?>
<!-- Generator: Adobe Illustrator 22.1.0, SVG Export Plug-In . SVG Version: 6.00 Build 0)  -->
<svg version="1.1" id="Layer_1" xmlns:serif="http://www.serif.com/"
	 xmlns="http://www.w3.org/2000/svg" xmlns:xlink="http://www.w3.org/1999/xlink" x="0px" y="0px" viewBox="0 0 456 456"
	 style="enable-background:new 0 0 456 456;" xml:space="preserve">
<style type="text/css">
	.st0{display:none;fill:#FFFFFF;}
</style>
<path class="st0" d="M105.5,281.6c-2.7,0-5-0.9-6.9-2.7c-1.9-1.8-2.8-4-2.8-6.6c0-2.6,0.9-4.8,2.8-6.7c1.9-1.8,4.2-2.8,6.9-2.8
	c2.7,0,5.1,0.9,7,2.8c1.9,1.8,2.9,4.1,2.9,6.7c0,2.5-1,4.7-2.9,6.6C110.6,280.7,108.2,281.6,105.5,281.6z"/>
<path class="st0" d="M213.6,280.1H196l-46.3-73c-1.2-1.8-2.1-3.8-2.9-5.8h-0.4c0.4,2.1,0.5,6.7,0.5,13.6v65.1h-15.5v-99.4h18.7
	l44.7,71.3c1.9,3,3.1,5,3.6,6.1h0.3c-0.5-2.6-0.7-7.1-0.7-13.4v-64h15.5L213.6,280.1z"/>
<path class="st0" d="M289.3,280.1h-54.4v-99.4h52.2v14h-36.2v28.1h33.3v13.9h-33.3v29.4h38.3V280.1z"/>
<path class="st0" d="M366.6,194.7h-27.8v85.4h-16.1v-85.4h-27.8v-14h71.7V194.7z"/>
<image style="overflow:visible;" width="200" height="200" xlink:href="C:\Users\PC\Desktop\logo_circle.png"  transform="matrix(0.685 0 0 0.67 153 152.9991)">
</image>
</svg>
